<svg xmlns="http://www.w3.org/2000/svg" viewBox="0 0 100 100">
  <polygon points="20 60 0 80 0 60 20 60"/>
  <polygon points="20 100 40 80 40 100 20 100"/>
  <polygon points="40 80 60 60 60 80 40 80"/>
  <polygon points="60 60 80 40 80 60 60 60"/>
  <polygon points="80 40 100 20 100 40 80 40"/>
  <polygon points="60 100 80 80 80 100 60 100"/>
  <polygon points="80 80 100 60 100 80 80 80"/>
  <polygon points="20 20 0 40 0 20 20 20"/>
  <polygon points="40 40 20 60 20 40 40 40"/>
  <polygon points="60 20 40 40 40 20 60 20"/>
  <polygon points="80 0 60 20 60 0 80 0"/>
  <polygon points="40 0 20 20 20 0 40 0"/>
</svg>
